<?xml version="1.0" standalone="no"?>
<!DOCTYPE svg PUBLIC "-//W3C//DTD SVG 20010904//EN"
 "http://www.w3.org/TR/2001/REC-SVG-20010904/DTD/svg10.dtd">
<svg version="1.0" xmlns="http://www.w3.org/2000/svg"
 width="700.000000pt" height="700.000000pt" viewBox="0 0 700.000000 700.000000"
 preserveAspectRatio="xMidYMid meet">
<metadata>
Created by potrace 1.11, written by Peter Selinger 2001-2013
</metadata>
<g transform="translate(0.000000,700.000000) scale(0.100000,-0.100000)"
fill="#000000" stroke="none">
<path d="M3393 6319 c-421 -51 -764 -326 -893 -719 -59 -179 -68 -394 -24
-575 81 -326 307 -594 614 -724 80 -34 107 -42 230 -67 67 -13 280 -21 298
-10 4 2 30 6 59 10 66 8 200 50 275 86 232 113 403 288 510 525 139 308 117
676 -60 970 -20 33 -38 62 -41 65 -4 3 -20 23 -36 45 -131 177 -409 346 -620
380 -125 19 -226 24 -312 14z m297 -446 c200 -61 361 -230 420 -441 26 -92 22
-260 -8 -352 -23 -69 -77 -166 -127 -226 -72 -87 -211 -169 -335 -198 -95 -23
-255 -15 -342 17 -191 69 -340 220 -399 407 -42 130 -34 331 17 428 7 15 14
32 14 38 0 19 96 148 139 187 101 92 233 151 358 163 37 4 69 7 70 8 7 6 146
-16 193 -31z"/>
<path d="M2355 4547 c-254 -213 -435 -466 -550 -766 -37 -97 -89 -290 -81
-298 2 -3 60 -6 128 -8 68 -2 134 -6 148 -9 14 -3 36 -8 50 -10 14 -3 39 -8
57 -11 30 -7 32 -6 43 34 80 300 252 566 482 748 l58 46 -93 96 c-50 53 -110
123 -132 156 -22 32 -44 60 -50 61 -5 2 -32 -16 -60 -39z"/>
<path d="M4569 4573 c-8 -10 -28 -38 -44 -63 -17 -25 -72 -88 -123 -141 l-92
-96 57 -46 c200 -158 366 -393 449 -638 19 -55 34 -107 34 -114 0 -8 4 -25 10
-39 9 -25 10 -25 48 -12 63 23 191 46 281 51 46 3 86 7 88 9 6 6 -35 163 -69
261 -61 177 -181 392 -301 539 -82 100 -297 306 -319 306 -3 0 -11 -8 -19 -17z"/>
<path d="M1640 3274 c-337 -60 -618 -268 -768 -569 -83 -167 -112 -304 -107
-500 4 -143 4 -145 40 -269 81 -280 279 -514 550 -649 143 -72 300 -105 477
-101 126 2 139 4 243 30 293 73 543 275 679 549 150 300 148 647 -4 950 -22
44 -61 107 -85 140 -44 59 -183 205 -196 205 -3 0 -18 11 -34 24 -89 76 -287
162 -445 191 -69 13 -275 12 -350 -1z m355 -434 c220 -68 385 -247 434 -473
84 -385 -201 -750 -594 -761 -181 -5 -338 57 -465 184 -197 197 -242 478 -119
730 132 267 458 407 744 320z"/>
<path d="M5105 3274 c-142 -26 -191 -42 -307 -99 -109 -54 -183 -109 -279
-205 -342 -345 -398 -871 -138 -1300 89 -147 286 -319 451 -393 245 -111 543
-123 798 -32 402 144 686 538 693 961 1 95 -9 210 -23 259 -38 134 -63 196
-121 305 -26 48 -93 135 -154 198 -139 147 -337 256 -540 298 -102 21 -289 25
-380 8z m290 -419 c93 -18 197 -68 273 -130 251 -207 308 -562 132 -834 -118
-183 -330 -294 -545 -285 -104 4 -164 19 -265 66 -69 33 -100 56 -165 122
-127 129 -182 262 -183 444 -1 207 97 392 273 517 34 25 66 45 69 45 4 0 26 9
49 19 90 41 257 58 362 36z"/>
<path d="M4003 1845 c-18 -8 -33 -11 -33 -8 0 3 -6 1 -12 -5 -23 -18 -147 -49
-275 -69 -63 -9 -292 -9 -368 0 -68 9 -248 52 -275 67 -15 8 -20 4 -30 -23
-39 -105 -81 -191 -127 -265 -30 -47 -52 -86 -51 -86 35 -21 280 -88 363 -100
22 -3 69 -10 105 -15 67 -10 392 -7 445 3 17 3 46 9 65 12 73 13 87 16 173 40
48 13 111 34 140 45 28 12 67 26 84 31 l33 9 -40 63 c-46 73 -100 187 -125
264 -19 56 -23 59 -72 37z"/>
</g>
</svg>
