<svg width="39" height="35" viewBox="0 0 39 35" fill="none" xmlns="http://www.w3.org/2000/svg">
<path fill-rule="evenodd" clip-rule="evenodd" d="M7.31355 32.1311C9.73705 32.1311 11.7017 30.2045 11.7017 27.8279C11.7017 25.4512 9.73705 23.5246 7.31355 23.5246C4.89005 23.5246 2.92542 25.4512 2.92542 27.8279C2.92542 30.2045 4.89005 32.1311 7.31355 32.1311ZM7.31355 35C11.3527 35 14.6271 31.7889 14.6271 27.8279C14.6271 23.8668 11.3527 20.6558 7.31355 20.6558C3.27439 20.6558 0 23.8668 0 27.8279C0 31.7889 3.27439 35 7.31355 35Z" fill="white"/>
<path fill-rule="evenodd" clip-rule="evenodd" d="M31.3018 32.1311C33.7253 32.1311 35.69 30.2045 35.69 27.8279C35.69 25.4512 33.7253 23.5246 31.3018 23.5246C28.8783 23.5246 26.9137 25.4512 26.9137 27.8279C26.9137 30.2045 28.8783 32.1311 31.3018 32.1311ZM31.3018 35C35.341 35 38.6154 31.7889 38.6154 27.8279C38.6154 23.8668 35.341 20.6558 31.3018 20.6558C27.2627 20.6558 23.9883 23.8668 23.9883 27.8279C23.9883 31.7889 27.2627 35 31.3018 35Z" fill="white"/>
<path fill-rule="evenodd" clip-rule="evenodd" d="M19.0152 11.4753C21.4387 11.4753 23.4033 9.54872 23.4033 7.17209C23.4033 4.79547 21.4387 2.86884 19.0152 2.86884C16.5917 2.86884 14.6271 4.79547 14.6271 7.17209C14.6271 9.54872 16.5917 11.4753 19.0152 11.4753ZM19.0152 14.3442C23.0544 14.3442 26.3288 11.1331 26.3288 7.17209C26.3288 3.21106 23.0544 0 19.0152 0C14.976 0 11.7017 3.21106 11.7017 7.17209C11.7017 11.1331 14.976 14.3442 19.0152 14.3442Z" fill="white"/>
<path fill-rule="evenodd" clip-rule="evenodd" d="M11.5013 11.7617C9.01545 13.5801 7.23806 16.278 6.64844 19.3855C6.86795 19.3694 7.08971 19.3611 7.31341 19.3611C8.09658 19.3611 8.85575 19.4617 9.57829 19.6505C10.0937 17.3073 11.4936 15.2868 13.4182 13.9416C12.6618 13.3268 12.0124 12.5899 11.5013 11.7617ZM24.612 13.9416C26.5812 15.3179 28.001 17.4012 28.4862 19.8136C29.3701 19.5202 30.317 19.3611 31.3019 19.3611C31.327 19.3611 31.3521 19.3612 31.3771 19.3615C30.7829 16.2641 29.0083 13.5754 26.5289 11.7617C26.0178 12.5899 25.3684 13.3268 24.612 13.9416ZM22.8636 30.3412C23.1375 31.2795 23.5698 32.1521 24.1302 32.9297C22.5674 33.6126 20.8364 33.9922 19.0151 33.9922C17.3659 33.9922 15.7908 33.681 14.3476 33.1151C14.9325 32.3477 15.3898 31.4814 15.6889 30.5464C16.7258 30.9197 17.8462 31.1234 19.0151 31.1234C20.383 31.1234 21.6845 30.8444 22.8636 30.3412Z" fill="white"/>
</svg>
