<?xml version="1.0" standalone="no"?>
<!DOCTYPE svg PUBLIC "-//W3C//DTD SVG 20010904//EN"
 "http://www.w3.org/TR/2001/REC-SVG-20010904/DTD/svg10.dtd">
<svg version="1.0" xmlns="http://www.w3.org/2000/svg"
 width="700.000000pt" height="700.000000pt" viewBox="0 0 700.000000 700.000000"
 preserveAspectRatio="xMidYMid meet">
<metadata>
Created by potrace 1.14, written by Peter Selinger 2001-2017
</metadata>
<g transform="translate(0.000000,700.000000) scale(0.100000,-0.100000)"
fill="#000000" stroke="none">
<path d="M3457 6664 c-1 -1 -42 -4 -92 -7 -258 -17 -502 -112 -704 -274 -379
-303 -548 -799 -431 -1264 56 -219 161 -401 329 -569 112 -111 197 -174 327
-239 85 -43 236 -97 300 -107 21 -3 41 -7 44 -9 11 -7 150 -18 225 -19 699 -2
1267 555 1267 1244 0 223 -67 459 -181 640 -192 305 -491 511 -841 579 -50 10
-238 29 -243 25z m173 -520 c340 -74 582 -375 583 -724 1 -342 -222 -629 -559
-721 -84 -22 -238 -30 -325 -16 -281 45 -518 257 -604 542 -20 65 -27 265 -12
339 30 155 128 318 253 422 183 154 423 211 664 158z"/>
<path d="M2095 4604 c-97 -83 -144 -126 -180 -162 -200 -199 -363 -435 -462
-667 -34 -79 -45 -105 -49 -120 -1 -5 -12 -35 -23 -65 -18 -50 -47 -154 -57
-205 -2 -11 -6 -32 -10 -47 l-6 -28 124 -1 c151 -1 227 -10 341 -38 28 -7 39
-6 41 2 69 268 175 485 331 677 68 83 183 196 260 255 33 26 61 50 62 53 1 4
-17 23 -40 42 -60 50 -180 184 -234 263 -26 37 -51 67 -57 67 -6 0 -24 -12
-41 -26z"/>
<path d="M4690 4577 c-51 -78 -115 -154 -202 -238 -43 -42 -78 -79 -78 -82 0
-3 30 -29 68 -58 37 -28 104 -90 150 -137 216 -222 354 -473 432 -788 l10 -42
61 19 c61 19 88 26 144 35 17 3 41 7 55 10 14 2 70 7 125 11 55 3 102 7 104 9
7 6 -20 123 -49 219 -104 338 -282 636 -530 885 -101 102 -227 210 -244 210
-6 0 -27 -24 -46 -53z"/>
<path d="M1318 3075 c-2 -2 -26 -5 -55 -9 -465 -55 -879 -392 -1028 -838 -44
-133 -62 -235 -64 -374 -6 -338 120 -645 364 -890 196 -197 445 -322 718 -362
67 -9 296 -9 367 2 417 59 784 333 965 719 45 96 81 207 91 282 3 22 10 59 14
83 8 45 6 275 -3 327 -14 81 -42 187 -66 250 -4 11 -29 64 -55 118 -108 220
-296 417 -511 534 -115 63 -251 114 -357 133 -29 6 -64 13 -78 16 -25 5 -297
14 -302 9z m311 -519 c140 -38 301 -138 383 -237 122 -151 177 -300 176 -487
-1 -585 -643 -935 -1155 -631 -67 40 -188 155 -231 220 -120 179 -157 418 -98
619 77 258 286 455 553 519 98 24 277 22 372 -3z"/>
<path d="M5458 3075 c-2 -1 -25 -5 -53 -8 -408 -45 -788 -312 -970 -682 -74
-152 -95 -218 -124 -395 -9 -56 -7 -295 3 -340 3 -14 11 -50 17 -80 84 -412
412 -773 830 -913 182 -61 420 -81 609 -50 606 97 1057 615 1058 1215 1 211
-37 376 -127 558 -160 322 -456 563 -806 655 -101 27 -183 37 -307 40 -70 1
-128 1 -130 0z m257 -508 c229 -56 394 -172 507 -358 34 -55 77 -163 85 -214
32 -184 17 -320 -49 -465 -68 -148 -159 -245 -323 -347 -133 -83 -381 -115
-550 -72 -150 38 -259 101 -365 209 -137 140 -210 318 -211 510 0 93 6 137 32
219 85 271 313 470 595 521 48 9 240 7 279 -3z"/>
<path d="M4060 1381 c-44 -26 -276 -89 -390 -107 -81 -12 -377 -12 -455 1
-156 26 -185 32 -274 61 -41 13 -75 23 -76 21 -1 -1 -14 -36 -29 -77 -33 -88
-103 -221 -158 -303 -22 -33 -36 -62 -32 -66 25 -21 295 -100 399 -117 166
-26 258 -32 435 -29 107 2 211 6 230 10 19 3 61 11 92 16 32 6 70 12 85 15
112 19 412 120 420 141 3 7 -6 27 -20 45 -58 79 -177 333 -177 380 0 19 -24
24 -50 9z"/>
</g>
</svg>
