<svg width="419" height="190" viewBox="0 0 419 190" fill="none" xmlns="http://www.w3.org/2000/svg">
<rect width="30" height="53" rx="5" fill="#C4C4C4"/>
<rect width="53" height="34" rx="5" transform="translate(366 2)" fill="#C4C4C4"/>
<rect width="5" height="34" rx="2.5" transform="translate(390 10)" fill="#C4C4C4"/>
<rect width="13" height="5" rx="2.5" transform="translate(386 40)" fill="#C4C4C4"/>
<rect width="18" height="4" transform="translate(6 6)" fill="white"/>
<rect width="18" height="4" rx="2" transform="translate(6 13)" fill="white"/>
<rect width="18" height="4" rx="2" transform="translate(6 20)" fill="white"/>
<rect width="43" height="26" rx="4" transform="translate(371 6)" fill="white"/>
<rect width="29" height="49" rx="5" transform="translate(378 66)" fill="#C4C4C4"/>
<rect width="21.9697" height="41.8727" rx="4" transform="translate(381.515 69.5637)" fill="white"/>
<rect width="8" height="4" rx="2" transform="translate(388 68)" fill="#C4C4C4"/>
<circle cx="2" cy="2" r="2" transform="translate(13 38)" fill="white"/>
<rect width="30" height="53" rx="5" transform="translate(0 70)" fill="#C4C4C4"/>
<rect width="18" height="4" rx="2" transform="translate(6 76)" fill="white"/>
<rect width="18" height="4" rx="2" transform="translate(6 83)" fill="white"/>
<rect width="18" height="4" rx="2" transform="translate(6 90)" fill="white"/>
<circle cx="2" cy="2" r="2" transform="translate(13 108)" fill="white"/>
<rect width="30" height="53" rx="5" transform="translate(376 137)" fill="#C4C4C4"/>
<rect width="18" height="4" rx="2" transform="translate(382 143)" fill="white"/>
<rect width="18" height="4" rx="2" transform="translate(382 150)" fill="white"/>
<rect width="18" height="4" rx="2" transform="translate(382 157)" fill="white"/>
<circle cx="2" cy="2" r="2" transform="translate(389 175)" fill="white"/>
<rect width="30" height="53" rx="5" transform="translate(0 137)" fill="#C4C4C4"/>
<rect width="18" height="4" rx="2" transform="translate(6 143)" fill="white"/>
<rect width="18" height="4" rx="2" transform="translate(6 150)" fill="white"/>
<rect width="18" height="4" rx="2" transform="translate(6 157)" fill="white"/>
<circle cx="2" cy="2" r="2" transform="translate(13 175)" fill="white"/>
<path fill-rule="evenodd" clip-rule="evenodd" d="M10.6061 16.7213C14.1206 16.7213 16.9697 13.9139 16.9697 10.4508C16.9697 6.98773 14.1206 4.18033 10.6061 4.18033C7.09152 4.18033 4.24242 6.98773 4.24242 10.4508C4.24242 13.9139 7.09152 16.7213 10.6061 16.7213ZM10.6061 20.9017C16.4636 20.9017 21.2121 16.2227 21.2121 10.4508C21.2121 4.679 16.4636 0 10.6061 0C4.7485 0 0 4.679 0 10.4508C0 16.2227 4.7485 20.9017 10.6061 20.9017Z" transform="translate(172 93.0984)" fill="#6D9DB9"/>
<path fill-rule="evenodd" clip-rule="evenodd" d="M10.6061 16.7213C14.1206 16.7213 16.9697 13.9139 16.9697 10.4508C16.9697 6.98773 14.1206 4.18033 10.6061 4.18033C7.09152 4.18033 4.24242 6.98773 4.24242 10.4508C4.24242 13.9139 7.09152 16.7213 10.6061 16.7213ZM10.6061 20.9017C16.4636 20.9017 21.2121 16.2227 21.2121 10.4508C21.2121 4.679 16.4636 0 10.6061 0C4.7485 0 0 4.679 0 10.4508C0 16.2227 4.7485 20.9017 10.6061 20.9017Z" transform="translate(206.788 93.0984)" fill="#6D9DB9"/>
<path fill-rule="evenodd" clip-rule="evenodd" d="M10.6061 16.7213C14.1206 16.7213 16.9697 13.9139 16.9697 10.4508C16.9697 6.98773 14.1206 4.18033 10.6061 4.18033C7.09152 4.18033 4.24242 6.98773 4.24242 10.4508C4.24242 13.9139 7.09152 16.7213 10.6061 16.7213ZM10.6061 20.9017C16.4636 20.9017 21.2121 16.2227 21.2121 10.4508C21.2121 4.679 16.4636 0 10.6061 0C4.7485 0 0 4.679 0 10.4508C0 16.2227 4.7485 20.9017 10.6061 20.9017Z" transform="translate(188.97 63)" fill="#6D9DB9"/>
<path fill-rule="evenodd" clip-rule="evenodd" d="M7.03755 0C3.43263 2.6496 0.855062 6.58096 0 11.109C0.318337 11.0855 0.639937 11.0735 0.964333 11.0735C2.10008 11.0735 3.20103 11.2201 4.24885 11.4951C4.99629 8.08079 7.02636 5.13655 9.81744 3.17635C8.72053 2.28051 7.77873 1.20677 7.03755 0ZM26.0506 3.17635C28.9063 5.18189 30.9653 8.21755 31.669 11.7328C32.9507 11.3053 34.324 11.0735 35.7522 11.0735C35.7887 11.0735 35.825 11.0737 35.8614 11.074C34.9997 6.5607 32.4261 2.64276 28.8305 0C28.0893 1.20677 27.1475 2.28053 26.0506 3.17635ZM23.5151 27.0731C23.9124 28.4403 24.5392 29.712 25.3519 30.8449C23.0856 31.8401 20.5753 32.3932 17.934 32.3932C15.5424 32.3932 13.2582 31.9397 11.1653 31.1152C12.0134 29.997 12.6767 28.7346 13.1104 27.3722C14.6141 27.916 16.2389 28.2129 17.934 28.2129C19.9178 28.2129 21.8052 27.8063 23.5151 27.0731Z" transform="translate(181.642 80.1394)" fill="#6D9DB9"/>
<path d="M0 0L119.5 49.5" transform="translate(41.5 23.5)" stroke="#C4C4C4" stroke-width="3" stroke-dasharray="5 5"/>
<circle cx="4" cy="4" r="4" transform="translate(41 159)" fill="#C4C4C4"/>
<circle cx="4" cy="4" r="4" transform="translate(56 151)" fill="#C4C4C4"/>
<circle cx="4" cy="4" r="4" transform="translate(73 147)" fill="#C4C4C4"/>
<circle cx="4" cy="4" r="4" transform="translate(89 144)" fill="#C4C4C4"/>
<circle cx="4" cy="4" r="4" transform="translate(106 134)" fill="#C4C4C4"/>
<circle cx="4" cy="4" r="4" transform="translate(122 132)" fill="#C4C4C4"/>
<circle cx="4" cy="4" r="4" transform="translate(134 119)" fill="#C4C4C4"/>
<circle cx="4" cy="4" r="4" transform="translate(151 118)" fill="#C4C4C4"/>
<path d="M0 8.32712C5.05386 10.3441 14.9659 13.168 14.1834 8.32712C13.2052 2.27606 12.7162 -1.75797 10.2707 0.763299C7.82533 3.28457 10.7598 9.3356 18.0961 9.83986C25.4323 10.3441 32.7686 0.763299 25.9214 0.763299C19.0742 0.763299 21.5197 9.83986 28.8559 9.83986C36.1921 9.83986 48.4192 4.79729 40.1048 2.78029C31.7904 0.763299 32.2795 9.83986 39.1266 9.83986C45.9738 9.83986 58.2009 2.78029 52.3319 2.78029C46.4629 2.78029 49.3974 9.83986 56.7336 9.83986C64.0699 9.83986 76.786 2.78029 69.4498 2.78029C62.1135 2.78029 65.5371 8.32712 71.4061 8.32712C77.2751 8.32712 94.393 2.78029 87.0568 2.78029C79.7205 2.78029 79.7205 9.83986 87.0568 9.83986C94.393 9.83986 109.555 5.80582 102.218 4.29306C94.8821 2.78029 98.3057 9.83986 103.686 9.83986C109.066 9.83986 112 8.32712 112 8.32712" transform="translate(41 90)" stroke="#C4C4C4" stroke-width="2"/>
<path d="M0 0L10 7L0 14V0Z" transform="translate(334.508 20.1116) rotate(-24.2774)" fill="#76A3BD"/>
<path d="M0 0L10 7L0 14V0Z" transform="translate(257.125 74.9326) rotate(154.003)" fill="#76A3BD"/>
<path d="M0 0L10 7L0 14V0Z" transform="translate(251.641 122.052) rotate(-154.675)" fill="#76A3BD"/>
<path d="M0 0L10 7L0 14V0Z" transform="translate(352 85.1221) rotate(-0.699695)" fill="#76A3BD"/>
<path d="M0 0L10 7L0 14V0Z" transform="translate(260.122 99) rotate(-180)" fill="#76A3BD"/>
<path d="M0 0L10 7L0 14V0Z" transform="translate(341.423 148) rotate(22.7904)" fill="#76A3BD"/>
<path d="M0 0L92.5 42.5" transform="translate(251 114)" stroke="#76A3BD" stroke-width="4"/>
<path d="M0 43.5L87 0" transform="translate(252 25.8491)" stroke="#76A3BD" stroke-width="4"/>
<path d="M0 0H99" transform="translate(256 92)" stroke="#76A3BD" stroke-width="4"/>
</svg>
