<svg width="375" height="110" viewBox="0 0 375 110" fill="none" xmlns="http://www.w3.org/2000/svg">
<path fill-rule="evenodd" clip-rule="evenodd" d="M7.453 11.7628C9.92271 11.7628 11.9248 9.78788 11.9248 7.35173C11.9248 4.91558 9.92271 2.94069 7.453 2.94069C4.9833 2.94069 2.9812 4.91558 2.9812 7.35173C2.9812 9.78788 4.9833 11.7628 7.453 11.7628ZM7.453 14.7035C11.5692 14.7035 14.906 11.412 14.906 7.35173C14.906 3.29148 11.5692 0 7.453 0C3.33682 0 0 3.29148 0 7.35173C0 11.412 3.33682 14.7035 7.453 14.7035Z" transform="translate(298.611 31.5886)" fill="#6D9DB9"/>
<path fill-rule="evenodd" clip-rule="evenodd" d="M7.453 11.7628C9.92271 11.7628 11.9248 9.78788 11.9248 7.35173C11.9248 4.91558 9.92271 2.94069 7.453 2.94069C4.9833 2.94069 2.9812 4.91558 2.9812 7.35173C2.9812 9.78788 4.9833 11.7628 7.453 11.7628ZM7.453 14.7035C11.5692 14.7035 14.906 11.412 14.906 7.35173C14.906 3.29148 11.5692 0 7.453 0C3.33682 0 0 3.29148 0 7.35173C0 11.412 3.33682 14.7035 7.453 14.7035Z" transform="translate(323.057 31.5886)" fill="#6D9DB9"/>
<path fill-rule="evenodd" clip-rule="evenodd" d="M7.453 11.7628C9.92271 11.7628 11.9248 9.78788 11.9248 7.35173C11.9248 4.91558 9.92271 2.94069 7.453 2.94069C4.9833 2.94069 2.9812 4.91558 2.9812 7.35173C2.9812 9.78788 4.9833 11.7628 7.453 11.7628ZM7.453 14.7035C11.5692 14.7035 14.906 11.412 14.906 7.35173C14.906 3.29148 11.5692 0 7.453 0C3.33682 0 0 3.29148 0 7.35173C0 11.412 3.33682 14.7035 7.453 14.7035Z" transform="translate(310.536 10.4158)" fill="#6D9DB9"/>
<path fill-rule="evenodd" clip-rule="evenodd" d="M4.94537 0C2.41215 1.86389 0.600862 4.62944 0 7.81472C0.223699 7.79818 0.449691 7.78977 0.677648 7.78977C1.47575 7.78977 2.2494 7.89288 2.98571 8.08635C3.51095 5.68451 4.93751 3.61335 6.89883 2.23443C6.12802 1.60424 5.4662 0.848913 4.94537 0ZM18.3061 2.23443C20.3128 3.64525 21.7597 5.78071 22.2542 8.25358C23.1549 7.95283 24.1199 7.78977 25.1235 7.78977C25.1491 7.78977 25.1747 7.78987 25.2002 7.79009C24.5947 4.61519 22.7862 1.85908 20.2595 0C19.7387 0.848913 19.0769 1.60426 18.3061 2.23443ZM16.5243 19.0448C16.8035 20.0066 17.244 20.9011 17.8151 21.6981C16.2225 22.3982 14.4585 22.7873 12.6025 22.7873C10.9218 22.7873 9.31669 22.4683 7.84596 21.8883C8.44198 21.1016 8.90809 20.2136 9.21283 19.2552C10.2695 19.6378 11.4113 19.8466 12.6025 19.8466C13.9965 19.8466 15.3228 19.5606 16.5243 19.0448Z" transform="translate(305.386 22.4727)" fill="#6D9DB9"/>
<path d="M9.25926 0L11.3381 6.39742H18.0653L12.6229 10.3512L14.7017 16.7487L9.25926 12.7948L3.8168 16.7487L5.89564 10.3512L0.45318 6.39742H7.18043L9.25926 0Z" transform="translate(263.889 60.1798)" fill="#F2C94C"/>
<path d="M9.25926 0L11.3381 6.39742H18.0653L12.6229 10.3512L14.7017 16.7487L9.25926 12.7948L3.8168 16.7487L5.89564 10.3512L0.45318 6.39742H7.18043L9.25926 0Z" transform="translate(287.037 60.1798)" fill="#F2C94C"/>
<path d="M9.25926 0L11.3381 6.39742H18.0653L12.6229 10.3512L14.7017 16.7487L9.25926 12.7948L3.8168 16.7487L5.89564 10.3512L0.45318 6.39742H7.18043L9.25926 0Z" transform="translate(310.185 60.1798)" fill="#F2C94C"/>
<path d="M9.25926 0L11.3381 6.39742H18.0653L12.6229 10.3512L14.7017 16.7487L9.25926 12.7948L3.8168 16.7487L5.89564 10.3512L0.45318 6.39742H7.18043L9.25926 0Z" transform="translate(333.333 60.1798)" fill="#F2C94C"/>
<path d="M9.25926 0L11.3381 6.39742H18.0653L12.6229 10.3512L14.7017 16.7487L9.25926 12.7948L3.8168 16.7487L5.89564 10.3512L0.45318 6.39742H7.18043L9.25926 0Z" transform="translate(356.481 60.1798)" fill="#F2C94C"/>
<path d="M9.25926 0L11.3381 6.39742H18.0653L12.6229 10.3512L14.7017 16.7487L9.25926 12.7948L3.8168 16.7487L5.89564 10.3512L0.45318 6.39742H7.18043L9.25926 0Z" transform="translate(2.31482 60.1798)" fill="#F2C94C"/>
<path d="M9.25926 0L11.3381 6.39742H18.0653L12.6229 10.3512L14.7017 16.7487L9.25926 12.7948L3.8168 16.7487L5.89564 10.3512L0.45318 6.39742H7.18043L9.25926 0Z" transform="translate(25.463 60.1798)" fill="#F2C94C"/>
<path d="M9.25926 0L11.3381 6.39742H18.0653L12.6229 10.3512L14.7017 16.7487L9.25926 12.7948L3.8168 16.7487L5.89564 10.3512L0.45318 6.39742H7.18043L9.25926 0Z" transform="translate(48.6111 60.1798)" fill="#F2C94C"/>
<path d="M9.25926 1.6179L10.8626 6.55194L10.9748 6.89742H11.3381H16.5264L12.329 9.94671L12.0351 10.1602L12.1474 10.5058L13.7506 15.4397L9.55313 12.3903L9.25926 12.1768L8.96538 12.3903L4.76788 15.4397L6.37116 10.5058L6.48344 10.1602L6.18951 9.94671L1.99213 6.89742H7.18043H7.54369L7.65595 6.55194L9.25926 1.6179Z" transform="translate(71.7593 60.1798)" fill="white" stroke="#BBBBBB"/>
<path d="M9.25926 1.6179L10.8626 6.55194L10.9748 6.89742H11.3381H16.5264L12.329 9.94671L12.0351 10.1602L12.1474 10.5058L13.7506 15.4397L9.55313 12.3903L9.25926 12.1768L8.96538 12.3903L4.76788 15.4397L6.37116 10.5058L6.48344 10.1602L6.18951 9.94671L1.99213 6.89742H7.18043H7.54369L7.65595 6.55194L9.25926 1.6179Z" transform="translate(94.9074 60.1798)" fill="white" stroke="#BBBBBB"/>
<path d="M40.5778 9.19824C40.5778 9.81022 40.3744 10.2806 39.9674 10.6094C39.5638 10.9349 39.0007 11.0977 38.278 11.0977C37.9297 11.0977 37.6253 11.0732 37.3649 11.0244C37.1077 10.9756 36.8669 10.8942 36.6423 10.7803V9.56934C37.1533 9.8623 37.6725 10.0088 38.1999 10.0088C38.4603 10.0088 38.6735 9.95671 38.8395 9.85254C39.0055 9.74512 39.0885 9.60026 39.0885 9.41797C39.0885 9.27799 39.0283 9.15267 38.9079 9.04199C38.7874 8.93132 38.5742 8.79134 38.2682 8.62207C37.8744 8.40072 37.5993 8.18099 37.443 7.96289C37.2868 7.74154 37.2087 7.48112 37.2087 7.18164C37.2087 6.62826 37.3877 6.2002 37.7458 5.89746C38.1071 5.59147 38.6214 5.43848 39.2887 5.43848C39.943 5.43848 40.5339 5.5931 41.0612 5.90234L40.5778 6.95215C40.1221 6.67871 39.7021 6.54199 39.318 6.54199C39.1325 6.54199 38.9827 6.58431 38.8688 6.66895C38.7549 6.75033 38.6979 6.861 38.6979 7.00098C38.6979 7.12793 38.75 7.24023 38.8542 7.33789C38.9583 7.43229 39.1536 7.55273 39.4401 7.69922C39.8405 7.9043 40.1302 8.12728 40.3092 8.36816C40.4883 8.60905 40.5778 8.88574 40.5778 9.19824ZM45.1969 7.60156C45.1969 6.96029 44.9642 6.63965 44.4987 6.63965C44.2546 6.63965 44.0348 6.73893 43.8395 6.9375C43.6475 7.13607 43.4896 7.42741 43.3659 7.81152C43.2454 8.19564 43.1852 8.59115 43.1852 8.99805C43.1852 9.60026 43.4294 9.90137 43.9176 9.90137C44.1618 9.90137 44.3815 9.80208 44.5768 9.60352C44.7721 9.40169 44.9235 9.12337 45.0309 8.76855C45.1416 8.41048 45.1969 8.02148 45.1969 7.60156ZM46.6764 7.60156C46.6764 8.28841 46.5609 8.89714 46.3298 9.42773C46.1019 9.95833 45.7715 10.3701 45.3385 10.6631C44.9056 10.9528 44.3913 11.0977 43.7956 11.0977C43.1608 11.0977 42.653 10.9072 42.2721 10.5264C41.8945 10.1423 41.7057 9.63281 41.7057 8.99805C41.7057 8.30469 41.8213 7.68783 42.0524 7.14746C42.2868 6.60384 42.6237 6.18392 43.0632 5.8877C43.5026 5.58822 44.0169 5.43848 44.6061 5.43848C45.2441 5.43848 45.7487 5.63053 46.1198 6.01465C46.4909 6.39876 46.6764 6.92773 46.6764 7.60156ZM49.0983 11.0977C48.6198 11.0977 48.2422 10.9251 47.9655 10.5801C47.6921 10.2318 47.5553 9.74512 47.5553 9.12012C47.5553 8.47559 47.6725 7.86198 47.9069 7.2793C48.1413 6.69336 48.4489 6.24089 48.8298 5.92188C49.2106 5.59961 49.6289 5.43848 50.0846 5.43848C50.4004 5.43848 50.6722 5.50684 50.9001 5.64355C51.1312 5.78027 51.3102 5.97884 51.4372 6.23926H51.4762L51.7546 5.54102H52.8874L51.7253 11H50.6071L50.6755 10.292H50.6559C50.2197 10.8291 49.7005 11.0977 49.0983 11.0977ZM49.6745 9.91113C49.8991 9.91113 50.1156 9.80208 50.3239 9.58398C50.5322 9.36589 50.6999 9.07129 50.8268 8.7002C50.9538 8.32585 51.0173 7.90267 51.0173 7.43066C51.0173 7.19954 50.9538 7.00911 50.8268 6.85938C50.7031 6.70638 50.5387 6.62988 50.3337 6.62988C50.1123 6.62988 49.9007 6.74707 49.6989 6.98145C49.5003 7.21582 49.3408 7.52507 49.2204 7.90918C49.1032 8.29329 49.0446 8.67415 49.0446 9.05176C49.0446 9.33822 49.0983 9.55306 49.2057 9.69629C49.3164 9.83952 49.4727 9.91113 49.6745 9.91113ZM57.0329 5.43848C57.5081 5.43848 57.8825 5.61426 58.1559 5.96582C58.4326 6.31413 58.571 6.80241 58.571 7.43066C58.571 8.05241 58.4587 8.65137 58.2341 9.22754C58.0127 9.80046 57.7083 10.2562 57.321 10.5947C56.9336 10.93 56.5072 11.0977 56.0417 11.0977C55.7715 11.0977 55.5387 11.0374 55.3434 10.917C55.1481 10.7965 54.9674 10.5915 54.8014 10.3018H54.7624C54.7233 10.8193 54.6533 11.2995 54.5524 11.7422L54.2008 13.4023H52.7311L54.401 5.54102H55.5241L55.4411 6.37109H55.485C55.9342 5.74935 56.4502 5.43848 57.0329 5.43848ZM56.4421 6.62988C56.2207 6.62988 56.0059 6.74056 55.7975 6.96191C55.5924 7.18001 55.4264 7.47298 55.2995 7.84082C55.1758 8.2054 55.1139 8.60905 55.1139 9.05176C55.1139 9.31217 55.1742 9.52051 55.2946 9.67676C55.415 9.83301 55.5811 9.91113 55.7926 9.91113C56.0107 9.91113 56.2191 9.79883 56.4176 9.57422C56.6162 9.34961 56.7757 9.04199 56.8962 8.65137C57.0199 8.25749 57.0817 7.87012 57.0817 7.48926C57.0817 6.91634 56.8685 6.62988 56.4421 6.62988ZM60.861 9.83789L60.9001 9.9502C60.516 10.7803 60.0895 11.5599 59.6208 12.2891H58.5221C58.763 11.7454 59.0788 10.9284 59.4694 9.83789H60.861ZM68.4489 9.19824C68.4489 9.81022 68.2454 10.2806 67.8385 10.6094C67.4349 10.9349 66.8717 11.0977 66.1491 11.0977C65.8008 11.0977 65.4964 11.0732 65.236 11.0244C64.9788 10.9756 64.738 10.8942 64.5134 10.7803V9.56934C65.0244 9.8623 65.5436 10.0088 66.071 10.0088C66.3314 10.0088 66.5446 9.95671 66.7106 9.85254C66.8766 9.74512 66.9596 9.60026 66.9596 9.41797C66.9596 9.27799 66.8994 9.15267 66.779 9.04199C66.6585 8.93132 66.4453 8.79134 66.1393 8.62207C65.7454 8.40072 65.4704 8.18099 65.3141 7.96289C65.1579 7.74154 65.0798 7.48112 65.0798 7.18164C65.0798 6.62826 65.2588 6.2002 65.6169 5.89746C65.9782 5.59147 66.4925 5.43848 67.1598 5.43848C67.8141 5.43848 68.405 5.5931 68.9323 5.90234L68.4489 6.95215C67.9932 6.67871 67.5732 6.54199 67.1891 6.54199C67.0036 6.54199 66.8538 6.58431 66.7399 6.66895C66.626 6.75033 66.569 6.861 66.569 7.00098C66.569 7.12793 66.6211 7.24023 66.7253 7.33789C66.8294 7.43229 67.0247 7.55273 67.3112 7.69922C67.7116 7.9043 68.0013 8.12728 68.1803 8.36816C68.3594 8.60905 68.4489 8.88574 68.4489 9.19824ZM71.0466 11.0977C70.7601 11.0977 70.5062 11.0212 70.2848 10.8682C70.0635 10.7119 69.8893 10.4857 69.7624 10.1895C69.6387 9.89323 69.5768 9.53678 69.5768 9.12012C69.5768 8.47559 69.694 7.86198 69.9284 7.2793C70.1628 6.69336 70.4704 6.24089 70.8512 5.92188C71.2321 5.59961 71.6504 5.43848 72.1061 5.43848C72.3861 5.43848 72.6335 5.50033 72.8483 5.62402C73.0664 5.74447 73.2699 5.94954 73.4587 6.23926H73.4977L73.776 5.54102H74.9089L73.2389 13.4023H71.7692C71.9222 12.6927 72.041 12.1426 72.1257 11.752C72.2103 11.3646 72.347 10.8698 72.5358 10.2676H72.4967C72.2624 10.5736 72.0296 10.7884 71.7985 10.9121C71.5674 11.0358 71.3167 11.0977 71.0466 11.0977ZM71.7497 9.91113C71.958 9.91113 72.1647 9.7972 72.3698 9.56934C72.5781 9.34147 72.7409 9.04688 72.8581 8.68555C72.9785 8.32422 73.0387 7.92546 73.0387 7.48926C73.0387 7.22884 72.9769 7.02051 72.8532 6.86426C72.7328 6.70801 72.5667 6.62988 72.3551 6.62988C72.1338 6.62988 71.9222 6.74707 71.7204 6.98145C71.5218 7.21582 71.3623 7.52507 71.2419 7.90918C71.1247 8.29329 71.0661 8.67415 71.0661 9.05176C71.0661 9.33822 71.1247 9.55306 71.2419 9.69629C71.3623 9.83952 71.5316 9.91113 71.7497 9.91113ZM76.735 11H75.2653L76.8766 3.40234H78.3464L76.735 11ZM39.2057 21.2119L37.4479 18.541H39.1374L40.1969 20.2793L41.2663 18.541H42.9557L41.1784 21.2119L43.0387 24H41.3444L40.1969 22.1299L39.0446 24H37.3551L39.2057 21.2119ZM48.7565 24H47.2673V20.8115C47.2673 20.4176 47.2005 20.123 47.0671 19.9277C46.9369 19.7292 46.7301 19.6299 46.4469 19.6299C46.0661 19.6299 45.7894 19.7699 45.6169 20.0498C45.4443 20.3298 45.3581 20.7904 45.3581 21.4316V24H43.8688V18.541H45.0065L45.2067 19.2393H45.2897C45.4362 18.9886 45.6478 18.7933 45.9245 18.6533C46.2012 18.5101 46.5186 18.4385 46.8766 18.4385C47.6937 18.4385 48.2471 18.7054 48.5368 19.2393H48.6686C48.8151 18.9854 49.0299 18.7884 49.3132 18.6484C49.5996 18.5085 49.9219 18.4385 50.2799 18.4385C50.8984 18.4385 51.3656 18.598 51.6813 18.917C52.0003 19.2327 52.1598 19.7406 52.1598 20.4404V24H50.6657V20.8115C50.6657 20.4176 50.599 20.123 50.4655 19.9277C50.3353 19.7292 50.1286 19.6299 49.8454 19.6299C49.4808 19.6299 49.2074 19.7601 49.0251 20.0205C48.846 20.2809 48.7565 20.6943 48.7565 21.2607V24ZM55.1823 24H53.693V16.4023H55.1823V24ZM58.2096 22.9502C58.0404 23.6077 57.7539 24.3874 57.3503 25.2891H56.276C56.4876 24.4232 56.652 23.6061 56.7692 22.8379H58.1364L58.2096 22.9502ZM64.4645 24.0977C62.7653 24.0977 61.9157 23.165 61.9157 21.2998C61.9157 20.3721 62.1468 19.6641 62.6091 19.1758C63.0713 18.6842 63.7337 18.4385 64.5964 18.4385C65.2279 18.4385 65.7943 18.5622 66.2956 18.8096L65.8561 19.9619C65.6217 19.8675 65.4036 19.791 65.2018 19.7324C65 19.6706 64.7982 19.6396 64.5964 19.6396C63.8216 19.6396 63.4342 20.1898 63.4342 21.29C63.4342 22.3577 63.8216 22.8916 64.5964 22.8916C64.8828 22.8916 65.1481 22.8542 65.3923 22.7793C65.6364 22.7012 65.8805 22.5807 66.1247 22.418V23.6924C65.8838 23.8454 65.6396 23.9512 65.3923 24.0098C65.1481 24.0684 64.8389 24.0977 64.4645 24.0977ZM71.2028 22.3789C71.2028 22.9388 71.0075 23.3652 70.6169 23.6582C70.2295 23.9512 69.6484 24.0977 68.8737 24.0977C68.4766 24.0977 68.138 24.07 67.8581 24.0146C67.5781 23.9626 67.3161 23.8844 67.0719 23.7803V22.5498C67.3486 22.68 67.6595 22.7891 68.0046 22.877C68.3529 22.9648 68.6589 23.0088 68.9225 23.0088C69.4629 23.0088 69.7331 22.8525 69.7331 22.54C69.7331 22.4229 69.6973 22.3285 69.6257 22.2568C69.554 22.182 69.4303 22.099 69.2546 22.0078C69.0788 21.9134 68.8444 21.8044 68.5514 21.6807C68.1315 21.5049 67.8223 21.3421 67.6237 21.1924C67.4284 21.0426 67.2852 20.8717 67.194 20.6797C67.1061 20.4844 67.0622 20.2451 67.0622 19.9619C67.0622 19.4769 67.2494 19.1025 67.6237 18.8389C68.0013 18.5719 68.5352 18.4385 69.2253 18.4385C69.8828 18.4385 70.5225 18.5817 71.1442 18.8682L70.695 19.9424C70.4216 19.8252 70.166 19.7292 69.9284 19.6543C69.6908 19.5794 69.4482 19.542 69.2009 19.542C68.7614 19.542 68.5417 19.6608 68.5417 19.8984C68.5417 20.0319 68.6117 20.1475 68.7516 20.2451C68.8949 20.3428 69.2057 20.4876 69.6842 20.6797C70.1107 20.8522 70.4232 21.0133 70.6217 21.1631C70.8203 21.3128 70.9668 21.4854 71.0612 21.6807C71.1556 21.876 71.2028 22.1087 71.2028 22.3789ZM73.6637 24L71.5837 18.541H73.1413L74.196 21.6514C74.3132 22.0452 74.3864 22.418 74.4157 22.7695H74.445C74.4613 22.457 74.5345 22.0843 74.6647 21.6514L75.7145 18.541H77.2721L75.1921 24H73.6637Z" transform="translate(0 83.3258)" fill="#828282"/>
<path d="M16.981 11H15.5112L16.1802 7.81152C16.2323 7.59017 16.2583 7.39648 16.2583 7.23047C16.2583 6.83008 16.0825 6.62988 15.731 6.62988C15.4315 6.62988 15.1597 6.81543 14.9155 7.18652C14.6714 7.55762 14.4793 8.0752 14.3394 8.73926L13.8609 11H12.3911L14.0025 3.40234H15.4722C15.3452 3.99154 15.2476 4.44401 15.1792 4.75977C15.1109 5.07552 14.9709 5.57845 14.7593 6.26855H14.7984C15.0002 6.0179 15.2248 5.81771 15.4722 5.66797C15.7196 5.51497 16.006 5.43848 16.3316 5.43848C16.7808 5.43848 17.1275 5.5752 17.3716 5.84863C17.619 6.11882 17.7427 6.50618 17.7427 7.01074C17.7427 7.24837 17.7053 7.54134 17.6304 7.88965L16.981 11ZM20.7652 9.91113C20.9767 9.91113 21.2404 9.85417 21.5562 9.74023V10.8389C21.1948 11.0114 20.7619 11.0977 20.2573 11.0977C19.7691 11.0977 19.4094 10.9951 19.1782 10.79C18.9504 10.585 18.8364 10.2676 18.8364 9.83789C18.8364 9.67513 18.856 9.49284 18.895 9.29102L19.4566 6.65918H18.7144L18.856 5.94141L19.813 5.53125L20.4575 4.37891H21.4048L21.1655 5.54102H22.5474L22.3032 6.65918H20.9263L20.3648 9.29102C20.3452 9.38867 20.3355 9.47493 20.3355 9.5498C20.3355 9.79069 20.4787 9.91113 20.7652 9.91113ZM24.8667 9.91113C25.0783 9.91113 25.342 9.85417 25.6577 9.74023V10.8389C25.2964 11.0114 24.8635 11.0977 24.3589 11.0977C23.8706 11.0977 23.5109 10.9951 23.2798 10.79C23.0519 10.585 22.938 10.2676 22.938 9.83789C22.938 9.67513 22.9575 9.49284 22.9966 9.29102L23.5581 6.65918H22.8159L22.9575 5.94141L23.9146 5.53125L24.5591 4.37891H25.5064L25.2671 5.54102H26.6489L26.4048 6.65918H25.0279L24.4663 9.29102C24.4468 9.38867 24.437 9.47493 24.437 9.5498C24.437 9.79069 24.5803 9.91113 24.8667 9.91113ZM30.4282 5.43848C30.9035 5.43848 31.2779 5.61426 31.5513 5.96582C31.828 6.31413 31.9663 6.80241 31.9663 7.43066C31.9663 8.05241 31.854 8.65137 31.6294 9.22754C31.4081 9.80046 31.1037 10.2562 30.7163 10.5947C30.329 10.93 29.9025 11.0977 29.437 11.0977C29.1668 11.0977 28.9341 11.0374 28.7388 10.917C28.5435 10.7965 28.3628 10.5915 28.1968 10.3018H28.1577C28.1187 10.8193 28.0487 11.2995 27.9478 11.7422L27.5962 13.4023H26.1265L27.7964 5.54102H28.9195L28.8364 6.37109H28.8804C29.3296 5.74935 29.8456 5.43848 30.4282 5.43848ZM29.8374 6.62988C29.6161 6.62988 29.4012 6.74056 29.1929 6.96191C28.9878 7.18001 28.8218 7.47298 28.6948 7.84082C28.5711 8.2054 28.5093 8.60905 28.5093 9.05176C28.5093 9.31217 28.5695 9.52051 28.69 9.67676C28.8104 9.83301 28.9764 9.91113 29.188 9.91113C29.4061 9.91113 29.6144 9.79883 29.813 9.57422C30.0116 9.34961 30.1711 9.04199 30.2915 8.65137C30.4152 8.25749 30.4771 7.87012 30.4771 7.48926C30.4771 6.91634 30.2639 6.62988 29.8374 6.62988ZM34.2564 9.83789L34.2954 9.9502C33.9113 10.7803 33.4849 11.5599 33.0161 12.2891H31.9175C32.1584 11.7454 32.4741 10.9284 32.8648 9.83789H34.2564ZM42.5669 11H41.0972L41.7661 7.81152C41.8182 7.59017 41.8443 7.39648 41.8443 7.23047C41.8443 6.83008 41.6685 6.62988 41.3169 6.62988C41.0174 6.62988 40.7456 6.81543 40.5015 7.18652C40.2573 7.55762 40.0653 8.0752 39.9253 8.73926L39.4468 11H37.9771L39.5884 3.40234H41.0581C40.9312 3.99154 40.8335 4.44401 40.7652 4.75977C40.6968 5.07552 40.5568 5.57845 40.3452 6.26855H40.3843C40.5861 6.0179 40.8107 5.81771 41.0581 5.66797C41.3055 5.51497 41.592 5.43848 41.9175 5.43848C42.3667 5.43848 42.7134 5.5752 42.9575 5.84863C43.2049 6.11882 43.3286 6.50618 43.3286 7.01074C43.3286 7.24837 43.2912 7.54134 43.2163 7.88965L42.5669 11ZM44.3394 5.54102H45.7798L46.0532 8.07031C46.0988 8.46745 46.1216 8.94434 46.1216 9.50098H46.1509C46.216 9.33496 46.2876 9.14128 46.3657 8.91992C46.4439 8.69531 46.5497 8.44466 46.6831 8.16797L47.9527 5.54102H49.5493L46.229 11.7812C45.6529 12.862 44.8667 13.4023 43.8706 13.4023C43.5777 13.4023 43.3384 13.3714 43.1529 13.3096V12.1377C43.3742 12.18 43.563 12.2012 43.7193 12.2012C43.9927 12.2012 44.232 12.123 44.437 11.9668C44.6454 11.8105 44.8374 11.568 45.0132 11.2393L45.1402 11L44.3394 5.54102ZM53.0064 5.43848C53.4816 5.43848 53.856 5.61426 54.1294 5.96582C54.4061 6.31413 54.5445 6.80241 54.5445 7.43066C54.5445 8.05241 54.4321 8.65137 54.2075 9.22754C53.9862 9.80046 53.6818 10.2562 53.2945 10.5947C52.9071 10.93 52.4807 11.0977 52.0152 11.0977C51.745 11.0977 51.5122 11.0374 51.3169 10.917C51.1216 10.7965 50.9409 10.5915 50.7749 10.3018H50.7359C50.6968 10.8193 50.6268 11.2995 50.5259 11.7422L50.1743 13.4023H48.7046L50.3745 5.54102H51.4976L51.4146 6.37109H51.4585C51.9077 5.74935 52.4237 5.43848 53.0064 5.43848ZM52.4155 6.62988C52.1942 6.62988 51.9793 6.74056 51.771 6.96191C51.5659 7.18001 51.3999 7.47298 51.273 7.84082C51.1493 8.2054 51.0874 8.60905 51.0874 9.05176C51.0874 9.31217 51.1476 9.52051 51.2681 9.67676C51.3885 9.83301 51.5545 9.91113 51.7661 9.91113C51.9842 9.91113 52.1926 9.79883 52.3911 9.57422C52.5897 9.34961 52.7492 9.04199 52.8696 8.65137C52.9933 8.25749 53.0552 7.87012 53.0552 7.48926C53.0552 6.91634 52.842 6.62988 52.4155 6.62988ZM58.3921 6.49805C58.1057 6.49805 57.8355 6.62826 57.5816 6.88867C57.3277 7.14909 57.1616 7.46647 57.0835 7.84082H57.3032C57.8078 7.84082 58.2001 7.7627 58.48 7.60645C58.7632 7.44694 58.9048 7.2321 58.9048 6.96191C58.9048 6.65267 58.7339 6.49805 58.3921 6.49805ZM57.5913 11.0977C56.9077 11.0977 56.3771 10.9137 55.9995 10.5459C55.6219 10.1781 55.4331 9.65885 55.4331 8.98828C55.4331 8.31445 55.5666 7.70085 55.8335 7.14746C56.1037 6.59082 56.4683 6.16764 56.9273 5.87793C57.3862 5.58496 57.9055 5.43848 58.4849 5.43848C59.0611 5.43848 59.5103 5.57194 59.8325 5.83887C60.1548 6.10254 60.3159 6.46549 60.3159 6.92773C60.3159 7.53646 60.0441 8.00684 59.5005 8.33887C58.9569 8.66764 58.1805 8.83203 57.1714 8.83203H56.9224L56.9126 8.93457V9.03223C56.9126 9.32845 56.9956 9.56283 57.1616 9.73535C57.3309 9.90462 57.5718 9.98926 57.8843 9.98926C58.1675 9.98926 58.4247 9.95833 58.6558 9.89648C58.8869 9.83464 59.1668 9.72559 59.4956 9.56934V10.6777C58.9357 10.9577 58.301 11.0977 57.5913 11.0977ZM64.6812 5.43848C64.8732 5.43848 65.0295 5.45638 65.1499 5.49219L64.8277 6.9082C64.6812 6.85612 64.5184 6.83008 64.3394 6.83008C63.9618 6.83008 63.6297 6.97982 63.3433 7.2793C63.0601 7.57552 62.8583 8.00195 62.7378 8.55859L62.2202 11H60.7505L61.9077 5.54102H63.0308L62.9282 6.55176H62.9575C63.4361 5.80957 64.0106 5.43848 64.6812 5.43848ZM68.8999 5.43848C69.6128 5.43848 70.0392 5.80957 70.1792 6.55176H70.2085C70.4299 6.19368 70.6903 5.91862 70.9898 5.72656C71.2925 5.53451 71.6148 5.43848 71.9566 5.43848C72.3993 5.43848 72.7362 5.57682 72.9673 5.85352C73.2017 6.13021 73.3189 6.51595 73.3189 7.01074C73.3189 7.25814 73.2814 7.55111 73.2066 7.88965L72.5571 11H71.0874L71.7612 7.81152C71.8133 7.59017 71.8394 7.39648 71.8394 7.23047C71.8394 6.83008 71.6799 6.62988 71.3609 6.62988C71.0614 6.62988 70.7896 6.81217 70.5454 7.17676C70.3045 7.54134 70.1125 8.05892 69.9693 8.72949L69.5005 11H68.0308L68.6997 7.81152C68.7518 7.59017 68.7778 7.39648 68.7778 7.23047C68.7778 6.83008 68.6183 6.62988 68.2993 6.62988C67.9999 6.62988 67.728 6.81543 67.4839 7.18652C67.2398 7.55762 67.0477 8.0752 66.9077 8.73926L66.4292 11H64.9595L66.1167 5.54102H67.2398L67.1372 6.55176H67.1665C67.6418 5.80957 68.2196 5.43848 68.8999 5.43848ZM77.23 6.49805C76.9435 6.49805 76.6734 6.62826 76.4194 6.88867C76.1655 7.14909 75.9995 7.46647 75.9214 7.84082H76.1411C76.6457 7.84082 77.0379 7.7627 77.3179 7.60645C77.6011 7.44694 77.7427 7.2321 77.7427 6.96191C77.7427 6.65267 77.5718 6.49805 77.23 6.49805ZM76.4292 11.0977C75.7456 11.0977 75.215 10.9137 74.8374 10.5459C74.4598 10.1781 74.271 9.65885 74.271 8.98828C74.271 8.31445 74.4045 7.70085 74.6714 7.14746C74.9416 6.59082 75.3062 6.16764 75.7652 5.87793C76.2241 5.58496 76.7433 5.43848 77.3228 5.43848C77.8989 5.43848 78.3482 5.57194 78.6704 5.83887C78.9927 6.10254 79.1538 6.46549 79.1538 6.92773C79.1538 7.53646 78.882 8.00684 78.3384 8.33887C77.7948 8.66764 77.0184 8.83203 76.0093 8.83203H75.7603L75.7505 8.93457V9.03223C75.7505 9.32845 75.8335 9.56283 75.9995 9.73535C76.1688 9.90462 76.4097 9.98926 76.7222 9.98926C77.0054 9.98926 77.2625 9.95833 77.4937 9.89648C77.7248 9.83464 78.0047 9.72559 78.3335 9.56934V10.6777C77.7736 10.9577 77.1388 11.0977 76.4292 11.0977ZM81.3902 11.0977C80.9116 11.0977 80.534 10.9235 80.2573 10.5752C79.9839 10.2269 79.8472 9.73861 79.8472 9.11035C79.8472 8.47233 79.9627 7.86361 80.1939 7.28418C80.4282 6.7015 80.7359 6.24902 81.1167 5.92676C81.4976 5.60124 81.9175 5.43848 82.3765 5.43848C82.6434 5.43848 82.8729 5.4987 83.065 5.61914C83.2603 5.73958 83.4442 5.94629 83.6167 6.23926H83.6558L83.6655 6.10254C83.6851 5.74447 83.7258 5.42708 83.7876 5.15039L84.1587 3.40234H85.6284L84.0171 11H82.8989L82.9673 10.292H82.9478C82.7166 10.5752 82.4741 10.7803 82.2202 10.9072C81.9696 11.0342 81.6929 11.0977 81.3902 11.0977ZM82.0054 9.91113C82.2202 9.91113 82.4286 9.80046 82.6304 9.5791C82.8355 9.35449 82.9999 9.05664 83.1236 8.68555C83.2472 8.31445 83.3091 7.91569 83.3091 7.48926C83.3091 7.22884 83.2472 7.02051 83.1236 6.86426C83.0031 6.70801 82.8371 6.62988 82.6255 6.62988C82.4041 6.62988 82.1926 6.74707 81.9907 6.98145C81.7922 7.21582 81.6327 7.52507 81.5122 7.90918C81.395 8.29329 81.3364 8.67415 81.3364 9.05176C81.3364 9.62467 81.5594 9.91113 82.0054 9.91113ZM86.9273 4.26172C86.9273 3.97852 87.0038 3.7653 87.1568 3.62207C87.313 3.47559 87.5327 3.40234 87.8159 3.40234C88.0536 3.40234 88.2342 3.4528 88.3579 3.55371C88.4816 3.65462 88.5435 3.79948 88.5435 3.98828C88.5435 4.2487 88.4719 4.46029 88.3286 4.62305C88.1854 4.78255 87.964 4.8623 87.6646 4.8623C87.173 4.8623 86.9273 4.66211 86.9273 4.26172ZM87.0054 11H85.5357L86.6929 5.54102H88.1626L87.0054 11ZM90.3062 11.0977C89.8277 11.0977 89.45 10.9251 89.1734 10.5801C88.8999 10.2318 88.7632 9.74512 88.7632 9.12012C88.7632 8.47559 88.8804 7.86198 89.1148 7.2793C89.3491 6.69336 89.6568 6.24089 90.0376 5.92188C90.4185 5.59961 90.8368 5.43848 91.2925 5.43848C91.6083 5.43848 91.8801 5.50684 92.1079 5.64355C92.339 5.78027 92.5181 5.97884 92.645 6.23926H92.6841L92.9624 5.54102H94.0952L92.9331 11H91.815L91.8833 10.292H91.8638C91.4276 10.8291 90.9084 11.0977 90.3062 11.0977ZM90.8823 9.91113C91.1069 9.91113 91.3234 9.80208 91.5318 9.58398C91.7401 9.36589 91.9077 9.07129 92.0347 8.7002C92.1616 8.32585 92.2251 7.90267 92.2251 7.43066C92.2251 7.19954 92.1616 7.00911 92.0347 6.85938C91.911 6.70638 91.7466 6.62988 91.5415 6.62988C91.3202 6.62988 91.1086 6.74707 90.9068 6.98145C90.7082 7.21582 90.5487 7.52507 90.4282 7.90918C90.3111 8.29329 90.2525 8.67415 90.2525 9.05176C90.2525 9.33822 90.3062 9.55306 90.4136 9.69629C90.5243 9.83952 90.6805 9.91113 90.8823 9.91113ZM30.2476 18.4385C30.4494 18.4385 30.617 18.4531 30.7505 18.4824L30.6382 19.8789C30.5178 19.8464 30.3713 19.8301 30.1987 19.8301C29.7235 19.8301 29.3524 19.9521 29.0855 20.1963C28.8218 20.4404 28.69 20.7822 28.69 21.2217V24H27.2007V18.541H28.3286L28.5484 19.459H28.6216C28.7909 19.153 29.0187 18.9072 29.3052 18.7217C29.5949 18.5329 29.909 18.4385 30.2476 18.4385ZM33.4702 24.0977C32.829 24.0977 32.3244 23.8486 31.9566 23.3506C31.592 22.8525 31.4097 22.1624 31.4097 21.2803C31.4097 20.3851 31.5952 19.6885 31.9663 19.1904C32.3407 18.6891 32.855 18.4385 33.5093 18.4385C34.1961 18.4385 34.7202 18.7054 35.0816 19.2393H35.1304C35.0555 18.8324 35.0181 18.4694 35.0181 18.1504V16.4023H36.5122V24H35.3696L35.0816 23.292H35.0181C34.6795 23.8291 34.1636 24.0977 33.4702 24.0977ZM33.9927 22.9111C34.3736 22.9111 34.6519 22.8005 34.8277 22.5791C35.0067 22.3577 35.1043 21.9818 35.1206 21.4512V21.29C35.1206 20.7041 35.0295 20.2842 34.8472 20.0303C34.6682 19.7764 34.3752 19.6494 33.9683 19.6494C33.6362 19.6494 33.3775 19.791 33.1919 20.0742C33.0096 20.3542 32.9185 20.7627 32.9185 21.2998C32.9185 21.8369 33.0112 22.2406 33.1968 22.5107C33.3823 22.7777 33.6476 22.9111 33.9927 22.9111ZM41.0874 19.6592H39.7984V24H38.3091V19.6592H37.4888V18.9414L38.3091 18.541V18.1406C38.3091 17.5189 38.4621 17.0648 38.7681 16.7783C39.0741 16.4919 39.564 16.3486 40.2378 16.3486C40.7521 16.3486 41.2095 16.4251 41.6099 16.5781L41.229 17.6719C40.9295 17.5775 40.6529 17.5303 40.3989 17.5303C40.1874 17.5303 40.0344 17.5938 39.94 17.7207C39.8456 17.8444 39.7984 18.0039 39.7984 18.1992V18.541H41.0874V19.6592ZM43.4068 22.9502C43.2375 23.6077 42.951 24.3874 42.5474 25.2891H41.4732C41.6848 24.4232 41.8491 23.6061 41.9663 22.8379H43.3335L43.4068 22.9502ZM47.0054 26.4023C46.6245 26.4023 46.2974 26.3617 46.0239 26.2803V25.1084C46.2518 25.1702 46.4846 25.2012 46.7222 25.2012C46.9728 25.2012 47.1551 25.1312 47.2691 24.9912C47.3862 24.8512 47.4448 24.6445 47.4448 24.3711V18.541H48.9341V24.5908C48.9341 25.1702 48.7665 25.6162 48.4312 25.9287C48.0959 26.2445 47.6206 26.4023 47.0054 26.4023ZM47.3814 17.1299C47.3814 16.6449 47.6515 16.4023 48.1919 16.4023C48.7323 16.4023 49.0025 16.6449 49.0025 17.1299C49.0025 17.361 48.9341 17.5417 48.7974 17.6719C48.6639 17.7988 48.4621 17.8623 48.1919 17.8623C47.6515 17.8623 47.3814 17.6182 47.3814 17.1299ZM54.3101 22.3789C54.3101 22.9388 54.1148 23.3652 53.7241 23.6582C53.3368 23.9512 52.7557 24.0977 51.981 24.0977C51.5838 24.0977 51.2453 24.07 50.9654 24.0146C50.6854 23.9626 50.4234 23.8844 50.1792 23.7803V22.5498C50.4559 22.68 50.7668 22.7891 51.1118 22.877C51.4601 22.9648 51.7661 23.0088 52.0298 23.0088C52.5702 23.0088 52.8404 22.8525 52.8404 22.54C52.8404 22.4229 52.8045 22.3285 52.7329 22.2568C52.6613 22.182 52.5376 22.099 52.3618 22.0078C52.1861 21.9134 51.9517 21.8044 51.6587 21.6807C51.2388 21.5049 50.9295 21.3421 50.731 21.1924C50.5357 21.0426 50.3924 20.8717 50.3013 20.6797C50.2134 20.4844 50.1695 20.2451 50.1695 19.9619C50.1695 19.4769 50.3566 19.1025 50.731 18.8389C51.1086 18.5719 51.6424 18.4385 52.3325 18.4385C52.9901 18.4385 53.6297 18.5817 54.2515 18.8682L53.8023 19.9424C53.5288 19.8252 53.2733 19.7292 53.0357 19.6543C52.798 19.5794 52.5555 19.542 52.3081 19.542C51.8687 19.542 51.6489 19.6608 51.6489 19.8984C51.6489 20.0319 51.7189 20.1475 51.8589 20.2451C52.0021 20.3428 52.313 20.4876 52.7915 20.6797C53.218 20.8522 53.5305 21.0133 53.729 21.1631C53.9276 21.3128 54.0741 21.4854 54.1685 21.6807C54.2629 21.876 54.3101 22.1087 54.3101 22.3789ZM56.6587 21.2607C56.6587 21.8011 56.7466 22.2096 56.9224 22.4863C57.1014 22.763 57.3911 22.9014 57.7915 22.9014C58.1887 22.9014 58.4735 22.7646 58.646 22.4912C58.8218 22.2145 58.9097 21.8044 58.9097 21.2607C58.9097 20.7204 58.8218 20.3151 58.646 20.0449C58.4702 19.7747 58.1821 19.6396 57.7818 19.6396C57.3846 19.6396 57.0982 19.7747 56.9224 20.0449C56.7466 20.3118 56.6587 20.7171 56.6587 21.2607ZM60.4331 21.2607C60.4331 22.1494 60.1987 22.8444 59.73 23.3457C59.2612 23.847 58.6086 24.0977 57.772 24.0977C57.2479 24.0977 56.7857 23.9837 56.3853 23.7559C55.9849 23.5247 55.6773 23.1943 55.4624 22.7646C55.2476 22.335 55.1402 21.8337 55.1402 21.2607C55.1402 20.3688 55.3729 19.6755 55.8384 19.1807C56.3039 18.6859 56.9582 18.4385 57.8013 18.4385C58.3254 18.4385 58.7876 18.5524 59.188 18.7803C59.5884 19.0081 59.896 19.3353 60.1109 19.7617C60.3257 20.1882 60.4331 20.6878 60.4331 21.2607ZM66.7027 24H65.2134V20.8115C65.2134 20.4176 65.1434 20.123 65.0034 19.9277C64.8635 19.7292 64.6405 19.6299 64.3345 19.6299C63.9178 19.6299 63.6167 19.7699 63.4312 20.0498C63.2456 20.3265 63.1529 20.7871 63.1529 21.4316V24H61.6636V18.541H62.8013L63.0015 19.2393H63.0845C63.2505 18.9756 63.4784 18.777 63.7681 18.6436C64.0611 18.5068 64.3931 18.4385 64.7642 18.4385C65.3989 18.4385 65.8807 18.611 66.2095 18.9561C66.5383 19.2979 66.7027 19.7926 66.7027 20.4404V24ZM67.7525 21.9297V20.709H70.3745V21.9297H67.7525ZM72.9478 24H71.4585V16.4023H72.9478V24ZM76.2437 24.0977C75.6024 24.0977 75.0978 23.8486 74.73 23.3506C74.3654 22.8525 74.1831 22.1624 74.1831 21.2803C74.1831 20.3851 74.3687 19.6885 74.7398 19.1904C75.1141 18.6891 75.6284 18.4385 76.2827 18.4385C76.9696 18.4385 77.4937 18.7054 77.855 19.2393H77.9038C77.829 18.8324 77.7915 18.4694 77.7915 18.1504V16.4023H79.2857V24H78.1431L77.855 23.292H77.7915C77.453 23.8291 76.937 24.0977 76.2437 24.0977ZM76.7661 22.9111C77.147 22.9111 77.4253 22.8005 77.6011 22.5791C77.7801 22.3577 77.8778 21.9818 77.8941 21.4512V21.29C77.8941 20.7041 77.8029 20.2842 77.6206 20.0303C77.4416 19.7764 77.1486 19.6494 76.7417 19.6494C76.4097 19.6494 76.1509 19.791 75.9653 20.0742C75.7831 20.3542 75.6919 20.7627 75.6919 21.2998C75.6919 21.8369 75.7847 22.2406 75.9702 22.5107C76.1558 22.7777 76.4211 22.9111 76.7661 22.9111Z" transform="translate(265.046 83.3258)" fill="#828282"/>
<rect width="71.7593" height="6.94382" transform="translate(148.148 63.6517)" fill="#76A3BD"/>
<path d="M0 0L16.2037 11.573L0 23.1461V0Z" transform="translate(211.806 55.5505)" fill="#76A3BD"/>
<rect width="32.4074" height="42.8202" rx="2" transform="translate(11.5741)" fill="#C4C4C4"/>
<rect width="23.1481" height="2.31461" transform="translate(16.2037 4.62927)" fill="white"/>
<rect width="37.037" height="2.31461" transform="translate(65.9722 2.31458)" fill="#C4C4C4"/>
<rect width="37.037" height="2.31461" transform="translate(65.9722 9.25842)" fill="#C4C4C4"/>
<rect width="37.037" height="2.31461" transform="translate(65.9722 38.191)" fill="#C4C4C4"/>
<rect width="34.7191" height="2.31481" transform="translate(75.2315 3.47192) rotate(90)" fill="#C4C4C4"/>
<rect width="34.7191" height="2.31481" transform="translate(89.1204 3.47192) rotate(90)" fill="#C4C4C4"/>
<rect width="34.7191" height="2.31481" transform="translate(82.1759 3.47192) rotate(90)" fill="#C4C4C4"/>
<rect width="34.7191" height="2.31481" transform="translate(96.0648 3.47192) rotate(90)" fill="#C4C4C4"/>
<rect width="34.7191" height="2.31481" transform="translate(103.009 3.47192) rotate(90)" fill="#C4C4C4"/>
<rect width="34.7191" height="2.31481" transform="translate(68.287 3.47192) rotate(90)" fill="#C4C4C4"/>
<rect width="20.8333" height="2.31461" transform="translate(16.2037 9.25842)" fill="white"/>
<rect width="23.1481" height="2.31461" transform="translate(16.2037 13.8877)" fill="white"/>
<rect width="20.8333" height="2.31461" transform="translate(16.2037 18.5168)" fill="white"/>
<rect width="16.2037" height="2.31461" transform="translate(16.2037 23.1461)" fill="white"/>
<rect width="20.8333" height="2.31461" transform="translate(16.2037 27.7753)" fill="white"/>
<rect width="16.2037" height="2.31461" transform="translate(16.2037 32.4045)" fill="white"/>
<rect width="10.4167" height="2.31461" transform="translate(16.2037 37.0337)" fill="white"/>
</svg>
