<svg width="317" height="126" viewBox="0 0 317 126" fill="none" xmlns="http://www.w3.org/2000/svg">
<rect x="1.5" y="1.5" width="27.6788" height="25.6509" rx="1.5" transform="translate(0 97.3491)" stroke="#C4C4C4" stroke-width="3"/>
<rect x="1.5" y="1.5" width="27.6788" height="25.6509" rx="1.5" transform="translate(0 52.8647)" stroke="#C4C4C4" stroke-width="3"/>
<rect x="1.5" y="1.5" width="27.6788" height="25.6509" rx="1.5" transform="translate(47.1407 52.8647)" stroke="#C4C4C4" stroke-width="3"/>
<rect x="1.5" y="1.5" width="27.6788" height="25.6509" rx="1.5" transform="translate(47.1407 6.87256)" stroke="#C4C4C4" stroke-width="3"/>
<path d="M0 0V18.4723" transform="translate(14.9653 80.7617)" stroke="#C4C4C4" stroke-width="3"/>
<path d="M0 0V18.8493" transform="translate(62.8542 34.0156)" stroke="#C4C4C4" stroke-width="3"/>
<path d="M15.5774 0L0 14.3429" transform="translate(219.294 98.5298)" stroke="#F2C94C" stroke-width="3" stroke-dasharray="2 2"/>
<path d="M15.5774 0L0 14.3429" transform="translate(266.649 31.1804)" stroke="#6DCA94" stroke-width="3" stroke-dasharray="2 2"/>
<path d="M33.8981 0L0 32.9194" transform="translate(14.9653 21.0762)" stroke="#C4C4C4" stroke-width="3"/>
<rect x="1.5" y="1.5" width="13.7038" height="11.9981" rx="1.5" transform="translate(233.002 91.0151)" stroke="#C4C4C4" stroke-width="3"/>
<rect x="1.5" y="1.5" width="13.7038" height="11.9981" rx="1.5" transform="translate(233.002 67.7285)" stroke="#C4C4C4" stroke-width="3"/>
<rect x="1.5" y="1.5" width="13.7038" height="11.9981" rx="1.5" transform="translate(258.669 67.7285)" stroke="#C4C4C4" stroke-width="3"/>
<path d="M0 0V9.66985" transform="translate(241.15 82.3318)" stroke="#C4C4C4" stroke-width="3"/>
<path d="M0 0V9.86719" transform="translate(267.224 57.8611)" stroke="#C4C4C4" stroke-width="3"/>
<path d="M19.316 0L0 19.3318" transform="translate(241.102 50.5122)" stroke="#C4C4C4" stroke-width="3"/>
<path d="M14.3312 0L0 14.9665" transform="translate(309.643 29.9331) scale(-1 1)" stroke="#6DCA94" stroke-width="3"/>
<rect x="1.5" y="1.5" width="13.7038" height="11.9981" rx="1.5" transform="translate(280.357 23.2866)" stroke="#6DCA94" stroke-width="3"/>
<rect x="1.5" y="1.5" width="13.7038" height="11.9981" rx="1.5" transform="translate(210.57 111.002)" stroke="#F2C94C" stroke-width="3"/>
<rect x="1.5" y="1.5" width="13.7038" height="11.9981" rx="1.5" transform="translate(280.357)" stroke="#6DCA94" stroke-width="3"/>
<rect x="1.5" y="1.5" width="13.7038" height="11.9981" rx="1.5" transform="translate(300.296 43.6526)" stroke="#6DCA94" stroke-width="3"/>
<path d="M0 0V9.66985" transform="translate(288.505 14.6035)" stroke="#6DCA94" stroke-width="3"/>
<rect width="85.8303" height="8.01818" transform="translate(101.852 63)" fill="#76A3BD"/>
<path d="M0 0L18.5436 13.2564L0 26.5128V0Z" transform="translate(184.026 53.8364)" fill="#76A3BD"/>
<rect x="1.5" y="1.5" width="13.7038" height="11.9981" rx="1.5" transform="translate(258.669 43.6526)" stroke="#C4C4C4" stroke-width="3"/>
</svg>
