<svg width="333" height="146" viewBox="0 0 333 146" fill="none" xmlns="http://www.w3.org/2000/svg">
<rect x="1.5" y="1.5" width="33.2692" height="30.9114" rx="1.5" transform="translate(0 112.089)" stroke="#C4C4C4" stroke-width="3"/>
<rect x="1.5" y="1.5" width="33.2692" height="30.9114" rx="1.5" transform="translate(0 59.4365)" stroke="#C4C4C4" stroke-width="3"/>
<rect x="1.5" y="1.5" width="33.2692" height="30.9114" rx="1.5" transform="translate(55.7308 59.4365)" stroke="#C4C4C4" stroke-width="3"/>
<rect x="1.5" y="1.5" width="33.2692" height="30.9114" rx="1.5" transform="translate(55.7308 5)" stroke="#C4C4C4" stroke-width="3"/>
<path d="M0 0V21.8639" transform="translate(17.6923 92.4556)" stroke="#C4C4C4" stroke-width="3"/>
<path d="M0 0V22.3101" transform="translate(74.3076 37.1267)" stroke="#C4C4C4" stroke-width="3"/>
<path d="M18.149 0L0 16.6196" transform="translate(219.163 114.169)" stroke="#F2C94C" stroke-width="3" stroke-dasharray="2 2"/>
<path d="M18.149 0L0 16.6196" transform="translate(274.337 36.1296)" stroke="#6DCA94" stroke-width="3" stroke-dasharray="2 2"/>
<path d="M40.0751 0L0 38.9636" transform="translate(17.6923 21.8115)" stroke="#C4C4C4" stroke-width="3"/>
<rect x="1.5" y="1.5" width="16.4614" height="14.3788" rx="1.5" transform="translate(235.135 105.462)" stroke="#C4C4C4" stroke-width="3"/>
<rect x="1.5" y="1.5" width="16.4614" height="14.3788" rx="1.5" transform="translate(235.135 78.4792)" stroke="#C4C4C4" stroke-width="3"/>
<rect x="1.5" y="1.5" width="16.4614" height="14.3788" rx="1.5" transform="translate(265.039 78.4792)" stroke="#C4C4C4" stroke-width="3"/>
<path d="M0 0V11.2047" transform="translate(244.628 95.4004)" stroke="#C4C4C4" stroke-width="3"/>
<path d="M0 0V11.4334" transform="translate(275.007 67.0454)" stroke="#C4C4C4" stroke-width="3"/>
<path d="M22.5048 0L0 22.4003" transform="translate(244.572 58.53)" stroke="#C4C4C4" stroke-width="3"/>
<path d="M16.6971 0L0 17.3422" transform="translate(324.428 34.6846) scale(-1 1)" stroke="#6DCA94" stroke-width="3"/>
<rect x="1.5" y="1.5" width="16.4614" height="14.3788" rx="1.5" transform="translate(290.308 26.9829)" stroke="#6DCA94" stroke-width="3"/>
<rect x="1.5" y="1.5" width="16.4614" height="14.3788" rx="1.5" transform="translate(209 128.621)" stroke="#F2C94C" stroke-width="3"/>
<rect x="1.5" y="1.5" width="16.4614" height="14.3788" rx="1.5" transform="translate(290.308)" stroke="#6DCA94" stroke-width="3"/>
<rect x="1.5" y="1.5" width="16.4614" height="14.3788" rx="1.5" transform="translate(313.539 50.5815)" stroke="#6DCA94" stroke-width="3"/>
<path d="M0 0V11.2047" transform="translate(299.801 16.9214)" stroke="#6DCA94" stroke-width="3"/>
<rect x="1.5" y="1.5" width="16.4614" height="14.3788" rx="1.5" transform="translate(265.039 50.5815)" stroke="#C4C4C4" stroke-width="3"/>
<rect width="71.7593" height="6.94382" transform="translate(122 65.1013)" fill="#76A3BD"/>
<path d="M0 0L16.2037 11.573L0 23.1461V0Z" transform="translate(185.657 57)" fill="#76A3BD"/>
</svg>
