<svg width="504" height="324" viewBox="0 0 504 324" fill="none" xmlns="http://www.w3.org/2000/svg">
<rect width="252" height="162" fill="white" transform="scale(2)"/>
<circle cx="30.5" cy="30.5" r="29" transform="translate(44 102) scale(2)" stroke="#76A3BD" stroke-width="3"/>
<circle cx="30.5" cy="30.5" r="29" transform="translate(322 46) scale(2)" stroke="#76A3BD" stroke-width="3"/>
<path d="M0 17.5L75 0" transform="translate(162 115) scale(2)" stroke="#76A3BD" stroke-width="3"/>
<path d="M0 0L71.5 23.5" transform="translate(159 183) scale(2)" stroke="#76A3BD" stroke-width="3"/>
<text transform="translate(62 164) scale(2)" fill="black" xml:space="preserve" style="white-space: pre" font-family="Open Sans" font-style="Bold" font-size="4" font-weight="bold" letter-spacing="0em"><tspan x="1.22656" y="4.27539">https://www.w3.org/</tspan><tspan x="1.64258" y="9.72266">People/Berners-Lee/</tspan></text>
<text transform="translate(342 104) scale(2)" fill="black" xml:space="preserve" style="white-space: pre" font-family="Open Sans" font-style="Bold" font-size="4" font-weight="bold" letter-spacing="0em"><tspan x="0.720703" y="4.27539">http://dbpedia.org/</tspan><tspan x="2.91602" y="9.72266">resource/London</tspan></text>
<text transform="translate(152.535 156.501) scale(2) rotate(-13.2524)" fill="black" xml:space="preserve" style="white-space: pre" font-family="Open Sans" font-style="Bold" font-size="4" font-weight="bold" letter-spacing="0em"><tspan x="13.3449" y="4.27539">http://schema.org/birthPlace</tspan></text>
<text transform="translate(148.635 183.752) scale(2) rotate(18.2601)" fill="black" xml:space="preserve" style="white-space: pre" font-family="Open Sans" font-style="Bold" font-size="4" font-weight="bold" letter-spacing="0em"><tspan x="13.8918" y="4.27539">http://schema.org/birthDate</tspan></text>
<text transform="translate(342 76) scale(2)" fill="black" xml:space="preserve" style="white-space: pre" font-family="Open Sans" font-style="Bold" font-size="10" font-weight="bold" letter-spacing="0em"><tspan x="2.24512" y="10.6885">London</tspan></text>
<text transform="translate(66 134) scale(2)" fill="black" xml:space="preserve" style="white-space: pre" font-family="Open Sans" font-style="Bold" font-size="10" font-weight="bold" letter-spacing="0em"><tspan x="11.6641" y="10.6885">Tim</tspan></text>
<text transform="translate(163.93 117.101) scale(2) rotate(-12.4306)" fill="black" xml:space="preserve" style="white-space: pre" font-family="Open Sans" font-style="Bold" font-size="10" font-weight="bold" letter-spacing="0em"><tspan x="6.36035" y="10.6885">birthPlace</tspan></text>
<text transform="translate(176.778 157.119) scale(2) rotate(16.8256)" fill="black" xml:space="preserve" style="white-space: pre" font-family="Open Sans" font-style="Bold" font-size="10" font-weight="bold" letter-spacing="0em"><tspan x="7.72754" y="10.6885">birthDate</tspan></text>
<text transform="translate(298.344 212.65) scale(2) rotate(18.2554)" fill="black" xml:space="preserve" style="white-space: pre" font-family="Open Sans" font-style="Bold" font-size="10" font-weight="bold" letter-spacing="0em"><tspan x="5.92578" y="10.6885">1955-06-08</tspan></text>
<path d="M0 0L8.61575 6.0421L0 12.0842V0Z" transform="translate(303.629 104.375) scale(1.99998) rotate(-13.1148)" fill="#76A3BD"/>
</svg>
